# xmcd CD database file
#
# Track frame offsets:
#	150
#	15297
#	29001
#	42797
#	57019
#	71278
#	86364
#	100973
#	115810
#	131536
#	145536
#	159933
#	173991
#	189481
#	203373
#	217446
#	231729
#	246398
#	259359
#	273157
#	286965
#	300997
#	315578
#
# Disc length: 4392 seconds
#
# Revision: 0
# Processed by: cddbd v1.4PL0 Copyright (c) Steve Scherf et al.
# Submitted via: CDex 1.50beta10
#
DISCID=40112617
DTITLE=Herschel Brown - Complete Recorded Works, 1928-1929
DYEAR=1928
DGENRE=Country
TTITLE0=Nobody Loves Me (Take 1) 
TTITLE1=Nobody Loves Me (Take 2) 
TTITLE2=Down Yonder 
TTITLE3=Liberty 
TTITLE4=Shanghai Rag 
TTITLE5=New Talking Blues 
TTITLE6=Talking Nigger Blues 
TTITLE7=Corn Shucking Party In Georgia 
TTITLE8=Home Brew Party 
TTITLE9=Soldier's Joy 
TTITLE10=I Wish That Gal Was Mine 
TTITLE11=Rockingham 
TTITLE12=Old Tune Medley 
TTITLE13=Spanish Rag 
TTITLE14=Kohalo Rag 
TTITLE15=New Talking Blues No. 2 
TTITLE16=Nigger Talking Blues No. 2 
TTITLE17=Liberty 
TTITLE18=Alabama Breakdown 
TTITLE19=Okeh Washboard Breakdown 
TTITLE20=Country Fair Part 1 
TTITLE21=Country Fair Part 2 
TTITLE22=Barbecue Down In Georgia Part 2
EXTD=YEAR: 1928
EXTT0=
EXTT1=
EXTT2=
EXTT3=
EXTT4=
EXTT5=
EXTT6=
EXTT7=
EXTT8=
EXTT9=
EXTT10=
EXTT11=
EXTT12=
EXTT13=
EXTT14=
EXTT15=
EXTT16=
EXTT17=
EXTT18=
EXTT19=
EXTT20=
EXTT21=
EXTT22=
PLAYORDER=
